<mxfile host="Electron" modified="2023-09-16T13:23:48.080Z" agent="Mozilla/5.0 (Windows NT 10.0; Win64; x64) AppleWebKit/537.36 (KHTML, like Gecko) draw.io/21.7.5 Chrome/114.0.5735.289 Electron/25.8.1 Safari/537.36" etag="wX2cZDcDnKxaRsF8BfI0" version="21.7.5" type="device" pages="2">
  <diagram id="b4KbmzYfxXK9f72umE7G" name="tt">
    <mxGraphModel dx="1434" dy="844" grid="1" gridSize="10" guides="1" tooltips="1" connect="1" arrows="1" fold="1" page="1" pageScale="1" pageWidth="1169" pageHeight="827" math="0" shadow="0">
      <root>
        <mxCell id="0" />
        <mxCell id="1" parent="0" />
        <mxCell id="GNqTdaBgWduBMivC4VjJ-1" value="" style="rounded=0;whiteSpace=wrap;html=1;align=left;spacingLeft=4;spacingRight=4;fillColor=#D1D1D1;" vertex="1" parent="1">
          <mxGeometry x="270" y="190" width="50" height="30" as="geometry" />
        </mxCell>
        <mxCell id="GNqTdaBgWduBMivC4VjJ-2" value="&lt;b&gt;Type of test&lt;/b&gt;" style="rounded=0;whiteSpace=wrap;html=1;align=left;spacingLeft=4;spacingRight=4;fillColor=#d1d1d1;" vertex="1" parent="1">
          <mxGeometry x="320" y="190" width="200" height="30" as="geometry" />
        </mxCell>
        <mxCell id="GNqTdaBgWduBMivC4VjJ-3" value="&lt;b&gt;Expected results&lt;/b&gt;" style="rounded=0;whiteSpace=wrap;html=1;align=left;spacingLeft=4;spacingRight=4;fillColor=#d1d1d1;" vertex="1" parent="1">
          <mxGeometry x="520" y="190" width="200" height="30" as="geometry" />
        </mxCell>
        <mxCell id="GNqTdaBgWduBMivC4VjJ-4" value="Test 1" style="rounded=0;whiteSpace=wrap;html=1;align=left;spacingLeft=4;spacingRight=4;fontStyle=1;fillColor=#d1d1d1;" vertex="1" parent="1">
          <mxGeometry x="270" y="220" width="50" height="180" as="geometry" />
        </mxCell>
        <mxCell id="GNqTdaBgWduBMivC4VjJ-5" value="&lt;p style=&quot;line-height: 200%;&quot;&gt;Weight 1: 30&lt;br&gt;Weight 2: 50&lt;br&gt;Weight 3: 45&lt;br&gt;Weight 4: 150&lt;br&gt;Weight 5: 70&lt;br&gt;Size of dog: large&lt;/p&gt;" style="rounded=0;align=left;spacingLeft=4;spacingRight=4;verticalAlign=top;html=1;fillColor=#d1d1d1;" vertex="1" parent="1">
          <mxGeometry x="320" y="220" width="200" height="180" as="geometry" />
        </mxCell>
        <mxCell id="GNqTdaBgWduBMivC4VjJ-6" value="" style="rounded=0;whiteSpace=wrap;html=1;align=left;spacingLeft=4;spacingRight=4;" vertex="1" parent="1">
          <mxGeometry x="520" y="220" width="200" height="180" as="geometry" />
        </mxCell>
        <mxCell id="GNqTdaBgWduBMivC4VjJ-7" value="Test 2" style="rounded=0;whiteSpace=wrap;html=1;align=left;spacingLeft=4;spacingRight=4;fontStyle=1;fillColor=#d1d1d1;" vertex="1" parent="1">
          <mxGeometry x="270" y="400" width="50" height="180" as="geometry" />
        </mxCell>
        <mxCell id="GNqTdaBgWduBMivC4VjJ-8" value="&lt;p style=&quot;line-height: 200%;&quot;&gt;Weight 1:&amp;nbsp;_______________&lt;br&gt;Weight 2: _______________&lt;br&gt;Weight 3: _______________&lt;br&gt;Weight 4: _______________&lt;br&gt;Weight 5: _______________&lt;br&gt;Size of dog: _______________&lt;/p&gt;" style="rounded=0;align=left;spacingLeft=4;spacingRight=4;verticalAlign=top;html=1;" vertex="1" parent="1">
          <mxGeometry x="320" y="400" width="200" height="180" as="geometry" />
        </mxCell>
        <mxCell id="GNqTdaBgWduBMivC4VjJ-9" value="&quot;This weight of food is suitable for your small dog&quot;" style="rounded=0;whiteSpace=wrap;html=1;align=left;spacingLeft=4;spacingRight=4;verticalAlign=top;fillColor=#d1d1d1;" vertex="1" parent="1">
          <mxGeometry x="520" y="400" width="200" height="180" as="geometry" />
        </mxCell>
      </root>
    </mxGraphModel>
  </diagram>
  <diagram id="JSeTmKmpEg_ac6eDD1_o" name="Task 2C">
    <mxGraphModel dx="869" dy="664" grid="1" gridSize="10" guides="1" tooltips="1" connect="1" arrows="1" fold="1" page="1" pageScale="1" pageWidth="1169" pageHeight="827" math="0" shadow="0">
      <root>
        <mxCell id="0" />
        <mxCell id="1" parent="0" />
        <mxCell id="6sAHpHZGAtFHMqBKG0Os-1" value="Entity&amp;nbsp;name: Seller" style="rounded=0;whiteSpace=wrap;html=1;align=left;fontFamily=Trebuchet MS;fontStyle=1;fontSize=14;fillColor=#eeeeee;strokeColor=#36393d;spacing=5;" parent="1" vertex="1">
          <mxGeometry x="240" y="40" width="620" height="40" as="geometry" />
        </mxCell>
        <mxCell id="6sAHpHZGAtFHMqBKG0Os-2" value="Attribute name" style="rounded=0;whiteSpace=wrap;html=1;align=left;fontStyle=1;fontFamily=Trebuchet MS;fontSize=14;fillColor=#eeeeee;strokeColor=#36393d;spacing=5;" parent="1" vertex="1">
          <mxGeometry x="240" y="80" width="140" height="40" as="geometry" />
        </mxCell>
        <mxCell id="6sAHpHZGAtFHMqBKG0Os-3" value="sellerName" style="rounded=0;whiteSpace=wrap;html=1;align=left;fontFamily=Trebuchet MS;fontSize=14;spacing=5;" parent="1" vertex="1">
          <mxGeometry x="240" y="120" width="140" height="40" as="geometry" />
        </mxCell>
        <mxCell id="6sAHpHZGAtFHMqBKG0Os-4" value="sellerAddress" style="rounded=0;whiteSpace=wrap;html=1;align=left;fontFamily=Trebuchet MS;fontSize=14;spacing=5;" parent="1" vertex="1">
          <mxGeometry x="240" y="160" width="140" height="40" as="geometry" />
        </mxCell>
        <mxCell id="6sAHpHZGAtFHMqBKG0Os-5" value="email" style="rounded=0;whiteSpace=wrap;html=1;align=left;fontFamily=Trebuchet MS;fontSize=14;spacing=5;" parent="1" vertex="1">
          <mxGeometry x="240" y="240" width="140" height="40" as="geometry" />
        </mxCell>
        <mxCell id="6sAHpHZGAtFHMqBKG0Os-6" value="telephoneNumber" style="rounded=0;whiteSpace=wrap;html=1;align=left;fontFamily=Trebuchet MS;fontSize=14;spacing=5;" parent="1" vertex="1">
          <mxGeometry x="240" y="280" width="140" height="40" as="geometry" />
        </mxCell>
        <mxCell id="6sAHpHZGAtFHMqBKG0Os-7" value="Key&lt;br style=&quot;font-size: 14px;&quot;&gt;" style="rounded=0;whiteSpace=wrap;html=1;align=left;fontStyle=1;fontFamily=Trebuchet MS;fontSize=14;fillColor=#eeeeee;strokeColor=#36393d;spacing=5;" parent="1" vertex="1">
          <mxGeometry x="380" y="80" width="40" height="40" as="geometry" />
        </mxCell>
        <mxCell id="6sAHpHZGAtFHMqBKG0Os-8" value="" style="rounded=0;whiteSpace=wrap;html=1;align=left;fontStyle=0;fontFamily=Trebuchet MS;fontSize=14;spacing=5;" parent="1" vertex="1">
          <mxGeometry x="380" y="120" width="40" height="40" as="geometry" />
        </mxCell>
        <mxCell id="6sAHpHZGAtFHMqBKG0Os-9" value="" style="rounded=0;whiteSpace=wrap;html=1;align=left;fontStyle=0;fontFamily=Trebuchet MS;fontSize=14;spacing=5;" parent="1" vertex="1">
          <mxGeometry x="380" y="160" width="40" height="40" as="geometry" />
        </mxCell>
        <mxCell id="6sAHpHZGAtFHMqBKG0Os-10" value="" style="rounded=0;whiteSpace=wrap;html=1;align=left;fontStyle=0;fontFamily=Trebuchet MS;fontSize=14;spacing=5;" parent="1" vertex="1">
          <mxGeometry x="380" y="240" width="40" height="40" as="geometry" />
        </mxCell>
        <mxCell id="6sAHpHZGAtFHMqBKG0Os-11" value="" style="rounded=0;whiteSpace=wrap;html=1;align=left;fontStyle=0;fontFamily=Trebuchet MS;fontSize=14;spacing=5;" parent="1" vertex="1">
          <mxGeometry x="380" y="280" width="40" height="40" as="geometry" />
        </mxCell>
        <mxCell id="6sAHpHZGAtFHMqBKG0Os-13" value="Type" style="rounded=0;whiteSpace=wrap;html=1;align=left;fontStyle=1;fontFamily=Trebuchet MS;fontSize=14;fillColor=#eeeeee;strokeColor=#36393d;spacing=5;" parent="1" vertex="1">
          <mxGeometry x="420" y="80" width="60" height="40" as="geometry" />
        </mxCell>
        <mxCell id="6sAHpHZGAtFHMqBKG0Os-14" value="text" style="rounded=0;whiteSpace=wrap;html=1;align=left;fontStyle=0;fontFamily=Trebuchet MS;fontSize=14;spacing=5;" parent="1" vertex="1">
          <mxGeometry x="420" y="120" width="60" height="40" as="geometry" />
        </mxCell>
        <mxCell id="6sAHpHZGAtFHMqBKG0Os-15" value="text" style="rounded=0;whiteSpace=wrap;html=1;align=left;fontStyle=0;fontFamily=Trebuchet MS;fontSize=14;spacing=5;" parent="1" vertex="1">
          <mxGeometry x="420" y="160" width="60" height="40" as="geometry" />
        </mxCell>
        <mxCell id="6sAHpHZGAtFHMqBKG0Os-16" value="text" style="rounded=0;whiteSpace=wrap;html=1;align=left;fontStyle=0;fontFamily=Trebuchet MS;fontSize=14;spacing=5;" parent="1" vertex="1">
          <mxGeometry x="420" y="240" width="60" height="40" as="geometry" />
        </mxCell>
        <mxCell id="6sAHpHZGAtFHMqBKG0Os-17" value="text" style="rounded=0;whiteSpace=wrap;html=1;align=left;fontStyle=0;fontFamily=Trebuchet MS;fontSize=14;spacing=5;" parent="1" vertex="1">
          <mxGeometry x="420" y="280" width="60" height="40" as="geometry" />
        </mxCell>
        <mxCell id="6sAHpHZGAtFHMqBKG0Os-18" value="Size" style="rounded=0;whiteSpace=wrap;html=1;align=left;fontStyle=1;fontFamily=Trebuchet MS;fontSize=14;fillColor=#eeeeee;strokeColor=#36393d;spacing=5;" parent="1" vertex="1">
          <mxGeometry x="480" y="80" width="60" height="40" as="geometry" />
        </mxCell>
        <mxCell id="6sAHpHZGAtFHMqBKG0Os-19" value="50" style="rounded=0;whiteSpace=wrap;html=1;align=left;fontStyle=0;fontFamily=Trebuchet MS;fontSize=14;spacing=5;" parent="1" vertex="1">
          <mxGeometry x="480" y="120" width="60" height="40" as="geometry" />
        </mxCell>
        <mxCell id="6sAHpHZGAtFHMqBKG0Os-20" value="255" style="rounded=0;whiteSpace=wrap;html=1;align=left;fontStyle=0;fontFamily=Trebuchet MS;fontSize=14;spacing=5;" parent="1" vertex="1">
          <mxGeometry x="480" y="160" width="60" height="40" as="geometry" />
        </mxCell>
        <mxCell id="6sAHpHZGAtFHMqBKG0Os-21" value="100" style="rounded=0;whiteSpace=wrap;html=1;align=left;fontStyle=0;fontFamily=Trebuchet MS;fontSize=14;spacing=5;" parent="1" vertex="1">
          <mxGeometry x="480" y="240" width="60" height="40" as="geometry" />
        </mxCell>
        <mxCell id="6sAHpHZGAtFHMqBKG0Os-22" value="11" style="rounded=0;whiteSpace=wrap;html=1;align=left;fontStyle=0;fontFamily=Trebuchet MS;fontSize=14;spacing=5;" parent="1" vertex="1">
          <mxGeometry x="480" y="280" width="60" height="40" as="geometry" />
        </mxCell>
        <mxCell id="6sAHpHZGAtFHMqBKG0Os-23" value="Required" style="rounded=0;whiteSpace=wrap;html=1;align=left;fontStyle=1;fontFamily=Trebuchet MS;fontSize=14;fillColor=#eeeeee;strokeColor=#36393d;spacing=5;" parent="1" vertex="1">
          <mxGeometry x="540" y="80" width="80" height="40" as="geometry" />
        </mxCell>
        <mxCell id="6sAHpHZGAtFHMqBKG0Os-24" value="Y" style="rounded=0;whiteSpace=wrap;html=1;align=left;fontStyle=0;fontFamily=Trebuchet MS;fontSize=14;spacing=5;" parent="1" vertex="1">
          <mxGeometry x="540" y="280" width="80" height="40" as="geometry" />
        </mxCell>
        <mxCell id="6sAHpHZGAtFHMqBKG0Os-25" value="Y" style="rounded=0;whiteSpace=wrap;html=1;align=left;fontStyle=0;fontFamily=Trebuchet MS;fontSize=14;spacing=5;" parent="1" vertex="1">
          <mxGeometry x="540" y="120" width="80" height="40" as="geometry" />
        </mxCell>
        <mxCell id="6sAHpHZGAtFHMqBKG0Os-26" value="Y" style="rounded=0;whiteSpace=wrap;html=1;align=left;fontStyle=0;fontFamily=Trebuchet MS;fontSize=14;spacing=5;" parent="1" vertex="1">
          <mxGeometry x="540" y="160" width="80" height="40" as="geometry" />
        </mxCell>
        <mxCell id="6sAHpHZGAtFHMqBKG0Os-27" value="N" style="rounded=0;whiteSpace=wrap;html=1;align=left;fontStyle=0;fontFamily=Trebuchet MS;fontSize=14;spacing=5;" parent="1" vertex="1">
          <mxGeometry x="540" y="240" width="80" height="40" as="geometry" />
        </mxCell>
        <mxCell id="6sAHpHZGAtFHMqBKG0Os-28" value="Validation" style="rounded=0;whiteSpace=wrap;html=1;align=left;fontStyle=1;fontFamily=Trebuchet MS;fontSize=14;fillColor=#eeeeee;strokeColor=#36393d;spacing=5;" parent="1" vertex="1">
          <mxGeometry x="620" y="80" width="240" height="40" as="geometry" />
        </mxCell>
        <mxCell id="6sAHpHZGAtFHMqBKG0Os-29" value="" style="rounded=0;whiteSpace=wrap;html=1;align=left;fontStyle=0;fontFamily=Trebuchet MS;fontSize=14;spacing=5;" parent="1" vertex="1">
          <mxGeometry x="620" y="120" width="240" height="40" as="geometry" />
        </mxCell>
        <mxCell id="6sAHpHZGAtFHMqBKG0Os-30" value="" style="rounded=0;whiteSpace=wrap;html=1;align=left;fontStyle=0;fontFamily=Trebuchet MS;fontSize=14;spacing=5;" parent="1" vertex="1">
          <mxGeometry x="620" y="160" width="240" height="40" as="geometry" />
        </mxCell>
        <mxCell id="6sAHpHZGAtFHMqBKG0Os-31" value="" style="rounded=0;whiteSpace=wrap;html=1;align=left;fontStyle=0;fontFamily=Trebuchet MS;fontSize=14;spacing=5;" parent="1" vertex="1">
          <mxGeometry x="620" y="240" width="240" height="40" as="geometry" />
        </mxCell>
        <mxCell id="6sAHpHZGAtFHMqBKG0Os-32" value="" style="rounded=0;whiteSpace=wrap;html=1;align=left;fontStyle=0;fontFamily=Trebuchet MS;fontSize=14;spacing=5;" parent="1" vertex="1">
          <mxGeometry x="620" y="280" width="240" height="40" as="geometry" />
        </mxCell>
        <mxCell id="6sAHpHZGAtFHMqBKG0Os-33" value="Entity&amp;nbsp;name: Property" style="rounded=0;whiteSpace=wrap;html=1;align=left;fontFamily=Trebuchet MS;fontStyle=1;fontSize=14;fillColor=#eeeeee;strokeColor=#36393d;spacing=5;" parent="1" vertex="1">
          <mxGeometry x="240" y="360" width="620" height="40" as="geometry" />
        </mxCell>
        <mxCell id="6sAHpHZGAtFHMqBKG0Os-34" value="Attribute name" style="rounded=0;whiteSpace=wrap;html=1;align=left;fontStyle=1;fontFamily=Trebuchet MS;fontSize=14;fillColor=#eeeeee;strokeColor=#36393d;spacing=5;" parent="1" vertex="1">
          <mxGeometry x="240" y="400" width="140" height="40" as="geometry" />
        </mxCell>
        <mxCell id="6sAHpHZGAtFHMqBKG0Os-35" value="houseNumber" style="rounded=0;whiteSpace=wrap;html=1;align=left;fontFamily=Trebuchet MS;fontSize=14;spacing=5;" parent="1" vertex="1">
          <mxGeometry x="240" y="440" width="140" height="40" as="geometry" />
        </mxCell>
        <mxCell id="6sAHpHZGAtFHMqBKG0Os-36" value="street" style="rounded=0;whiteSpace=wrap;html=1;align=left;fontFamily=Trebuchet MS;fontSize=14;spacing=5;" parent="1" vertex="1">
          <mxGeometry x="240" y="480" width="140" height="40" as="geometry" />
        </mxCell>
        <mxCell id="6sAHpHZGAtFHMqBKG0Os-37" value="city" style="rounded=0;whiteSpace=wrap;html=1;align=left;fontFamily=Trebuchet MS;fontSize=14;spacing=5;" parent="1" vertex="1">
          <mxGeometry x="240" y="520" width="140" height="60" as="geometry" />
        </mxCell>
        <mxCell id="6sAHpHZGAtFHMqBKG0Os-38" value="postcode" style="rounded=0;whiteSpace=wrap;html=1;align=left;fontFamily=Trebuchet MS;fontSize=14;spacing=5;" parent="1" vertex="1">
          <mxGeometry x="240" y="580" width="140" height="40" as="geometry" />
        </mxCell>
        <mxCell id="6sAHpHZGAtFHMqBKG0Os-39" value="Key&lt;br style=&quot;font-size: 14px;&quot;&gt;" style="rounded=0;whiteSpace=wrap;html=1;align=left;fontStyle=1;fontFamily=Trebuchet MS;fontSize=14;fillColor=#eeeeee;strokeColor=#36393d;spacing=5;" parent="1" vertex="1">
          <mxGeometry x="380" y="400" width="40" height="40" as="geometry" />
        </mxCell>
        <mxCell id="6sAHpHZGAtFHMqBKG0Os-40" value="" style="rounded=0;whiteSpace=wrap;html=1;align=left;fontStyle=0;fontFamily=Trebuchet MS;fontSize=14;spacing=5;" parent="1" vertex="1">
          <mxGeometry x="380" y="440" width="40" height="40" as="geometry" />
        </mxCell>
        <mxCell id="6sAHpHZGAtFHMqBKG0Os-42" value="" style="rounded=0;whiteSpace=wrap;html=1;align=left;fontStyle=0;fontFamily=Trebuchet MS;fontSize=14;spacing=5;" parent="1" vertex="1">
          <mxGeometry x="380" y="520" width="40" height="60" as="geometry" />
        </mxCell>
        <mxCell id="6sAHpHZGAtFHMqBKG0Os-43" value="" style="rounded=0;whiteSpace=wrap;html=1;align=left;fontStyle=0;fontFamily=Trebuchet MS;fontSize=14;spacing=5;" parent="1" vertex="1">
          <mxGeometry x="380" y="580" width="40" height="40" as="geometry" />
        </mxCell>
        <mxCell id="6sAHpHZGAtFHMqBKG0Os-44" value="Type" style="rounded=0;whiteSpace=wrap;html=1;align=left;fontStyle=1;fontFamily=Trebuchet MS;fontSize=14;fillColor=#eeeeee;strokeColor=#36393d;spacing=5;" parent="1" vertex="1">
          <mxGeometry x="420" y="400" width="60" height="40" as="geometry" />
        </mxCell>
        <mxCell id="6sAHpHZGAtFHMqBKG0Os-45" value="number" style="rounded=0;whiteSpace=wrap;html=1;align=left;fontStyle=0;fontFamily=Trebuchet MS;fontSize=14;spacing=5;" parent="1" vertex="1">
          <mxGeometry x="420" y="440" width="60" height="40" as="geometry" />
        </mxCell>
        <mxCell id="6sAHpHZGAtFHMqBKG0Os-46" value="text" style="rounded=0;whiteSpace=wrap;html=1;align=left;fontStyle=0;fontFamily=Trebuchet MS;fontSize=14;spacing=5;" parent="1" vertex="1">
          <mxGeometry x="420" y="480" width="60" height="40" as="geometry" />
        </mxCell>
        <mxCell id="6sAHpHZGAtFHMqBKG0Os-47" value="text" style="rounded=0;whiteSpace=wrap;html=1;align=left;fontStyle=0;fontFamily=Trebuchet MS;fontSize=14;spacing=5;" parent="1" vertex="1">
          <mxGeometry x="420" y="520" width="60" height="60" as="geometry" />
        </mxCell>
        <mxCell id="6sAHpHZGAtFHMqBKG0Os-48" value="text" style="rounded=0;whiteSpace=wrap;html=1;align=left;fontStyle=0;fontFamily=Trebuchet MS;fontSize=14;spacing=5;" parent="1" vertex="1">
          <mxGeometry x="420" y="580" width="60" height="40" as="geometry" />
        </mxCell>
        <mxCell id="6sAHpHZGAtFHMqBKG0Os-49" value="Size" style="rounded=0;whiteSpace=wrap;html=1;align=left;fontStyle=1;fontFamily=Trebuchet MS;fontSize=14;fillColor=#eeeeee;strokeColor=#36393d;spacing=5;" parent="1" vertex="1">
          <mxGeometry x="480" y="400" width="60" height="40" as="geometry" />
        </mxCell>
        <mxCell id="6sAHpHZGAtFHMqBKG0Os-50" value="" style="rounded=0;whiteSpace=wrap;html=1;align=left;fontStyle=0;fontFamily=Trebuchet MS;fontSize=14;spacing=5;" parent="1" vertex="1">
          <mxGeometry x="480" y="440" width="60" height="40" as="geometry" />
        </mxCell>
        <mxCell id="6sAHpHZGAtFHMqBKG0Os-51" value="75" style="rounded=0;whiteSpace=wrap;html=1;align=left;fontStyle=0;fontFamily=Trebuchet MS;fontSize=14;spacing=5;" parent="1" vertex="1">
          <mxGeometry x="480" y="480" width="60" height="40" as="geometry" />
        </mxCell>
        <mxCell id="6sAHpHZGAtFHMqBKG0Os-52" value="9" style="rounded=0;whiteSpace=wrap;html=1;align=left;fontStyle=0;fontFamily=Trebuchet MS;fontSize=14;spacing=5;" parent="1" vertex="1">
          <mxGeometry x="480" y="520" width="60" height="60" as="geometry" />
        </mxCell>
        <mxCell id="6sAHpHZGAtFHMqBKG0Os-54" value="Required" style="rounded=0;whiteSpace=wrap;html=1;align=left;fontStyle=1;fontFamily=Trebuchet MS;fontSize=14;fillColor=#eeeeee;strokeColor=#36393d;spacing=5;" parent="1" vertex="1">
          <mxGeometry x="540" y="400" width="80" height="40" as="geometry" />
        </mxCell>
        <mxCell id="6sAHpHZGAtFHMqBKG0Os-55" value="Y" style="rounded=0;whiteSpace=wrap;html=1;align=left;fontStyle=0;fontFamily=Trebuchet MS;fontSize=14;spacing=5;" parent="1" vertex="1">
          <mxGeometry x="540" y="580" width="80" height="40" as="geometry" />
        </mxCell>
        <mxCell id="6sAHpHZGAtFHMqBKG0Os-56" value="Y" style="rounded=0;whiteSpace=wrap;html=1;align=left;fontStyle=0;fontFamily=Trebuchet MS;fontSize=14;spacing=5;" parent="1" vertex="1">
          <mxGeometry x="540" y="440" width="80" height="40" as="geometry" />
        </mxCell>
        <mxCell id="6sAHpHZGAtFHMqBKG0Os-57" value="Y" style="rounded=0;whiteSpace=wrap;html=1;align=left;fontStyle=0;fontFamily=Trebuchet MS;fontSize=14;spacing=5;" parent="1" vertex="1">
          <mxGeometry x="540" y="480" width="80" height="40" as="geometry" />
        </mxCell>
        <mxCell id="6sAHpHZGAtFHMqBKG0Os-58" value="Y" style="rounded=0;whiteSpace=wrap;html=1;align=left;fontStyle=0;fontFamily=Trebuchet MS;fontSize=14;spacing=5;" parent="1" vertex="1">
          <mxGeometry x="540" y="520" width="80" height="60" as="geometry" />
        </mxCell>
        <mxCell id="6sAHpHZGAtFHMqBKG0Os-59" value="Validation" style="rounded=0;whiteSpace=wrap;html=1;align=left;fontStyle=1;fontFamily=Trebuchet MS;fontSize=14;fillColor=#eeeeee;strokeColor=#36393d;spacing=5;" parent="1" vertex="1">
          <mxGeometry x="620" y="400" width="240" height="40" as="geometry" />
        </mxCell>
        <mxCell id="6sAHpHZGAtFHMqBKG0Os-60" value="" style="rounded=0;whiteSpace=wrap;html=1;align=left;fontStyle=0;fontFamily=Trebuchet MS;fontSize=14;spacing=5;" parent="1" vertex="1">
          <mxGeometry x="620" y="440" width="240" height="40" as="geometry" />
        </mxCell>
        <mxCell id="6sAHpHZGAtFHMqBKG0Os-61" value="" style="rounded=0;whiteSpace=wrap;html=1;align=left;fontStyle=0;fontFamily=Trebuchet MS;fontSize=14;spacing=5;" parent="1" vertex="1">
          <mxGeometry x="620" y="480" width="240" height="40" as="geometry" />
        </mxCell>
        <mxCell id="6sAHpHZGAtFHMqBKG0Os-62" value="Restricted choice: Aberdeen, Dundee, Edinburgh, Glasgow, Inverness, Perth, Stirling" style="rounded=0;whiteSpace=wrap;html=1;align=left;fontStyle=0;fontFamily=Trebuchet MS;fontSize=14;spacing=5;" parent="1" vertex="1">
          <mxGeometry x="620" y="520" width="240" height="60" as="geometry" />
        </mxCell>
        <mxCell id="6sAHpHZGAtFHMqBKG0Os-63" value="" style="rounded=0;whiteSpace=wrap;html=1;align=left;fontStyle=0;fontFamily=Trebuchet MS;fontSize=14;spacing=5;" parent="1" vertex="1">
          <mxGeometry x="620" y="580" width="240" height="40" as="geometry" />
        </mxCell>
        <mxCell id="6sAHpHZGAtFHMqBKG0Os-64" value="sellerID" style="rounded=0;whiteSpace=wrap;html=1;align=left;fontFamily=Trebuchet MS;fontSize=14;spacing=5;" parent="1" vertex="1">
          <mxGeometry x="240" y="200" width="140" height="40" as="geometry" />
        </mxCell>
        <mxCell id="6sAHpHZGAtFHMqBKG0Os-65" value="PK" style="rounded=0;whiteSpace=wrap;html=1;align=left;fontStyle=0;fontFamily=Trebuchet MS;fontSize=14;spacing=5;" parent="1" vertex="1">
          <mxGeometry x="380" y="200" width="40" height="40" as="geometry" />
        </mxCell>
        <mxCell id="6sAHpHZGAtFHMqBKG0Os-66" value="text" style="rounded=0;whiteSpace=wrap;html=1;align=left;fontStyle=0;fontFamily=Trebuchet MS;fontSize=14;spacing=5;" parent="1" vertex="1">
          <mxGeometry x="420" y="200" width="60" height="40" as="geometry" />
        </mxCell>
        <mxCell id="6sAHpHZGAtFHMqBKG0Os-67" value="4" style="rounded=0;whiteSpace=wrap;html=1;align=left;fontStyle=0;fontFamily=Trebuchet MS;fontSize=14;spacing=5;" parent="1" vertex="1">
          <mxGeometry x="480" y="200" width="60" height="40" as="geometry" />
        </mxCell>
        <mxCell id="6sAHpHZGAtFHMqBKG0Os-68" value="Y" style="rounded=0;whiteSpace=wrap;html=1;align=left;fontStyle=0;fontFamily=Trebuchet MS;fontSize=14;spacing=5;" parent="1" vertex="1">
          <mxGeometry x="540" y="200" width="80" height="40" as="geometry" />
        </mxCell>
        <mxCell id="6sAHpHZGAtFHMqBKG0Os-69" value="" style="rounded=0;whiteSpace=wrap;html=1;align=left;fontStyle=0;fontFamily=Trebuchet MS;fontSize=14;spacing=5;" parent="1" vertex="1">
          <mxGeometry x="620" y="200" width="240" height="40" as="geometry" />
        </mxCell>
        <mxCell id="6sAHpHZGAtFHMqBKG0Os-70" value="propertyRef" style="rounded=0;whiteSpace=wrap;html=1;align=left;fontFamily=Trebuchet MS;fontSize=14;spacing=5;" parent="1" vertex="1">
          <mxGeometry x="240" y="620" width="140" height="40" as="geometry" />
        </mxCell>
        <mxCell id="6sAHpHZGAtFHMqBKG0Os-71" value="sellerID" style="rounded=0;whiteSpace=wrap;html=1;align=left;fontFamily=Trebuchet MS;fontSize=14;spacing=5;" parent="1" vertex="1">
          <mxGeometry x="240" y="660" width="140" height="40" as="geometry" />
        </mxCell>
        <mxCell id="6sAHpHZGAtFHMqBKG0Os-72" value="PK" style="rounded=0;whiteSpace=wrap;html=1;align=left;fontStyle=0;fontFamily=Trebuchet MS;fontSize=14;spacing=5;" parent="1" vertex="1">
          <mxGeometry x="380" y="620" width="40" height="40" as="geometry" />
        </mxCell>
        <mxCell id="6sAHpHZGAtFHMqBKG0Os-73" value="FK" style="rounded=0;whiteSpace=wrap;html=1;align=left;fontStyle=0;fontFamily=Trebuchet MS;fontSize=14;spacing=5;" parent="1" vertex="1">
          <mxGeometry x="380" y="660" width="40" height="40" as="geometry" />
        </mxCell>
        <mxCell id="6sAHpHZGAtFHMqBKG0Os-74" value="text" style="rounded=0;whiteSpace=wrap;html=1;align=left;fontStyle=0;fontFamily=Trebuchet MS;fontSize=14;spacing=5;" parent="1" vertex="1">
          <mxGeometry x="420" y="620" width="60" height="40" as="geometry" />
        </mxCell>
        <mxCell id="6sAHpHZGAtFHMqBKG0Os-75" value="text" style="rounded=0;whiteSpace=wrap;html=1;align=left;fontStyle=0;fontFamily=Trebuchet MS;fontSize=14;spacing=5;" parent="1" vertex="1">
          <mxGeometry x="420" y="660" width="60" height="40" as="geometry" />
        </mxCell>
        <mxCell id="6sAHpHZGAtFHMqBKG0Os-76" value="15" style="rounded=0;whiteSpace=wrap;html=1;align=left;fontStyle=0;fontFamily=Trebuchet MS;fontSize=14;spacing=5;" parent="1" vertex="1">
          <mxGeometry x="480" y="620" width="60" height="40" as="geometry" />
        </mxCell>
        <mxCell id="6sAHpHZGAtFHMqBKG0Os-77" value="4" style="rounded=0;whiteSpace=wrap;html=1;align=left;fontStyle=0;fontFamily=Trebuchet MS;fontSize=14;spacing=5;" parent="1" vertex="1">
          <mxGeometry x="480" y="660" width="60" height="40" as="geometry" />
        </mxCell>
        <mxCell id="6sAHpHZGAtFHMqBKG0Os-78" value="Y" style="rounded=0;whiteSpace=wrap;html=1;align=left;fontStyle=0;fontFamily=Trebuchet MS;fontSize=14;spacing=5;" parent="1" vertex="1">
          <mxGeometry x="540" y="660" width="80" height="40" as="geometry" />
        </mxCell>
        <mxCell id="6sAHpHZGAtFHMqBKG0Os-79" value="Y" style="rounded=0;whiteSpace=wrap;html=1;align=left;fontStyle=0;fontFamily=Trebuchet MS;fontSize=14;spacing=5;" parent="1" vertex="1">
          <mxGeometry x="540" y="620" width="80" height="40" as="geometry" />
        </mxCell>
        <mxCell id="6sAHpHZGAtFHMqBKG0Os-80" value="" style="rounded=0;whiteSpace=wrap;html=1;align=left;fontStyle=0;fontFamily=Trebuchet MS;fontSize=14;spacing=5;" parent="1" vertex="1">
          <mxGeometry x="620" y="620" width="240" height="40" as="geometry" />
        </mxCell>
        <mxCell id="6sAHpHZGAtFHMqBKG0Os-81" value="Exists in Seller" style="rounded=0;whiteSpace=wrap;html=1;align=left;fontStyle=0;fontFamily=Trebuchet MS;fontSize=14;spacing=5;" parent="1" vertex="1">
          <mxGeometry x="620" y="660" width="240" height="40" as="geometry" />
        </mxCell>
        <mxCell id="6sAHpHZGAtFHMqBKG0Os-82" value="numberOfBedrooms" style="rounded=0;whiteSpace=wrap;html=1;align=left;fontFamily=Trebuchet MS;fontSize=14;spacing=5;" parent="1" vertex="1">
          <mxGeometry x="240" y="700" width="140" height="40" as="geometry" />
        </mxCell>
        <mxCell id="6sAHpHZGAtFHMqBKG0Os-83" value="" style="rounded=0;whiteSpace=wrap;html=1;align=left;fontStyle=0;fontFamily=Trebuchet MS;fontSize=14;spacing=5;" parent="1" vertex="1">
          <mxGeometry x="380" y="700" width="40" height="40" as="geometry" />
        </mxCell>
        <mxCell id="6sAHpHZGAtFHMqBKG0Os-84" value="number" style="rounded=0;whiteSpace=wrap;html=1;align=left;fontStyle=0;fontFamily=Trebuchet MS;fontSize=14;spacing=5;" parent="1" vertex="1">
          <mxGeometry x="420" y="700" width="60" height="40" as="geometry" />
        </mxCell>
        <mxCell id="6sAHpHZGAtFHMqBKG0Os-85" value="" style="rounded=0;whiteSpace=wrap;html=1;align=left;fontStyle=0;fontFamily=Trebuchet MS;fontSize=14;spacing=5;" parent="1" vertex="1">
          <mxGeometry x="480" y="700" width="60" height="40" as="geometry" />
        </mxCell>
        <mxCell id="6sAHpHZGAtFHMqBKG0Os-86" value="Y" style="rounded=0;whiteSpace=wrap;html=1;align=left;fontStyle=0;fontFamily=Trebuchet MS;fontSize=14;spacing=5;" parent="1" vertex="1">
          <mxGeometry x="540" y="700" width="80" height="40" as="geometry" />
        </mxCell>
        <mxCell id="6sAHpHZGAtFHMqBKG0Os-87" value="" style="rounded=0;whiteSpace=wrap;html=1;align=left;fontStyle=0;fontFamily=Trebuchet MS;fontSize=14;spacing=5;" parent="1" vertex="1">
          <mxGeometry x="620" y="700" width="240" height="40" as="geometry" />
        </mxCell>
        <mxCell id="gitRzBzVqJDqfcBcNz0p-1" value="estimatedValue" style="rounded=0;whiteSpace=wrap;html=1;align=left;fontFamily=Trebuchet MS;fontSize=14;spacing=5;" parent="1" vertex="1">
          <mxGeometry x="240" y="740" width="140" height="40" as="geometry" />
        </mxCell>
        <mxCell id="gitRzBzVqJDqfcBcNz0p-2" value="" style="rounded=0;whiteSpace=wrap;html=1;align=left;fontStyle=0;fontFamily=Trebuchet MS;fontSize=14;spacing=5;" parent="1" vertex="1">
          <mxGeometry x="380" y="740" width="40" height="40" as="geometry" />
        </mxCell>
        <mxCell id="gitRzBzVqJDqfcBcNz0p-3" value="number" style="rounded=0;whiteSpace=wrap;html=1;align=left;fontStyle=0;fontFamily=Trebuchet MS;fontSize=14;spacing=5;" parent="1" vertex="1">
          <mxGeometry x="420" y="740" width="60" height="40" as="geometry" />
        </mxCell>
        <mxCell id="gitRzBzVqJDqfcBcNz0p-4" value="" style="rounded=0;whiteSpace=wrap;html=1;align=left;fontStyle=0;fontFamily=Trebuchet MS;fontSize=14;spacing=5;" parent="1" vertex="1">
          <mxGeometry x="480" y="740" width="60" height="40" as="geometry" />
        </mxCell>
        <mxCell id="gitRzBzVqJDqfcBcNz0p-5" value="Y" style="rounded=0;whiteSpace=wrap;html=1;align=left;fontStyle=0;fontFamily=Trebuchet MS;fontSize=14;spacing=5;" parent="1" vertex="1">
          <mxGeometry x="540" y="740" width="80" height="40" as="geometry" />
        </mxCell>
        <mxCell id="gitRzBzVqJDqfcBcNz0p-6" value="Range: &amp;gt;= 0 AND &amp;lt;= 300000000" style="rounded=0;whiteSpace=wrap;html=1;align=left;fontStyle=0;fontFamily=Trebuchet MS;fontSize=14;spacing=5;" parent="1" vertex="1">
          <mxGeometry x="620" y="740" width="240" height="40" as="geometry" />
        </mxCell>
        <mxCell id="-UGsNP-nTbBEEjyd8Vpc-1" value="8" style="rounded=0;whiteSpace=wrap;html=1;align=left;fontStyle=0;fontFamily=Trebuchet MS;fontSize=14;spacing=5;" parent="1" vertex="1">
          <mxGeometry x="480" y="580" width="60" height="40" as="geometry" />
        </mxCell>
        <mxCell id="-UGsNP-nTbBEEjyd8Vpc-3" value="askingPrice" style="rounded=0;whiteSpace=wrap;html=1;align=left;fontFamily=Trebuchet MS;fontSize=14;spacing=5;" parent="1" vertex="1">
          <mxGeometry x="240" y="780" width="140" height="40" as="geometry" />
        </mxCell>
        <mxCell id="-UGsNP-nTbBEEjyd8Vpc-4" value="" style="rounded=0;whiteSpace=wrap;html=1;align=left;fontStyle=0;fontFamily=Trebuchet MS;fontSize=14;spacing=5;" parent="1" vertex="1">
          <mxGeometry x="380" y="780" width="40" height="40" as="geometry" />
        </mxCell>
        <mxCell id="-UGsNP-nTbBEEjyd8Vpc-5" value="number" style="rounded=0;whiteSpace=wrap;html=1;align=left;fontStyle=0;fontFamily=Trebuchet MS;fontSize=14;spacing=5;" parent="1" vertex="1">
          <mxGeometry x="420" y="780" width="60" height="40" as="geometry" />
        </mxCell>
        <mxCell id="-UGsNP-nTbBEEjyd8Vpc-6" value="" style="rounded=0;whiteSpace=wrap;html=1;align=left;fontStyle=0;fontFamily=Trebuchet MS;fontSize=14;spacing=5;" parent="1" vertex="1">
          <mxGeometry x="480" y="780" width="60" height="40" as="geometry" />
        </mxCell>
        <mxCell id="-UGsNP-nTbBEEjyd8Vpc-7" value="Y" style="rounded=0;whiteSpace=wrap;html=1;align=left;fontStyle=0;fontFamily=Trebuchet MS;fontSize=14;spacing=5;" parent="1" vertex="1">
          <mxGeometry x="540" y="780" width="80" height="40" as="geometry" />
        </mxCell>
        <mxCell id="-UGsNP-nTbBEEjyd8Vpc-8" value="Range: &amp;gt;= 0 AND &amp;lt;= 300000000" style="rounded=0;whiteSpace=wrap;html=1;align=left;fontStyle=0;fontFamily=Trebuchet MS;fontSize=14;spacing=5;" parent="1" vertex="1">
          <mxGeometry x="620" y="780" width="240" height="40" as="geometry" />
        </mxCell>
        <mxCell id="-UGsNP-nTbBEEjyd8Vpc-9" value="" style="rounded=0;whiteSpace=wrap;html=1;align=left;fontStyle=0;fontFamily=Trebuchet MS;fontSize=14;spacing=5;" parent="1" vertex="1">
          <mxGeometry x="380" y="480" width="40" height="40" as="geometry" />
        </mxCell>
      </root>
    </mxGraphModel>
  </diagram>
</mxfile>
